mtllib grail_object.mtl
usemtl grail_object
v 0 -0.864952981 0
v 0.734471977 -0.864952981 0
v 0.734471977 0.864952981 0
v 0 0.864952981 0
v 0 -0.864952981 0.0120000001
v 0.734471977 -0.864952981 0.185941994
v 0.734471977 0.864952981 0.185941994
v 0 0.864952981 0.0120000001
v 0 -0.864952981 0
v 0.734471977 -0.864952981 0
v 0.734471977 -0.864952981 0.185941994
v 0 -0.864952981 0.0120000001
v 0 0.864952981 0
v 0.734471977 0.864952981 0
v 0.734471977 0.864952981 0.185941994
v 0 0.864952981 0.0120000001
v 0 -0.864952981 0
v 0 0.864952981 0
v 0 0.864952981 0.0120000001
v 0 -0.864952981 0.0120000001
v 0.734471977 -0.864952981 0
v 0.734471977 0.864952981 0
v 0.734471977 0.864952981 0.185941994
v 0.734471977 -0.864952981 0.185941994
v 0.734471977 -0.710605979 0
v 1.46943903 -0.710605979 0
v 1.46943903 0.710605979 0
v 0.734471977 0.710605979 0
v 0.734471977 -0.710605979 0.185941994
v 1.46943903 -0.710605979 0.373948991
v 1.46943903 0.710605979 0.373948991
v 0.734471977 0.710605979 0.185941994
v 0.734471977 -0.710605979 0
v 1.46943903 -0.710605979 0
v 1.46943903 -0.710605979 0.373948991
v 0.734471977 -0.710605979 0.185941994
v 0.734471977 0.710605979 0
v 1.46943903 0.710605979 0
v 1.46943903 0.710605979 0.373948991
v 0.734471977 0.710605979 0.185941994
v 0.734471977 -0.710605979 0
v 0.734471977 0.710605979 0
v 0.734471977 0.710605979 0.185941994
v 0.734471977 -0.710605979 0.185941994
v 1.46943903 -0.710605979 0
v 1.46943903 0.710605979 0
v 1.46943903 0.710605979 0.373948991
v 1.46943903 -0.710605979 0.373948991
v 1.46943903 -0.898169994 0
v 2.07042789 -0.898169994 0
v 2.07042789 0.898169994 0
v 1.46943903 0.898169994 0
v 1.46943903 -0.898169994 0.373948991
v 2.07042789 -0.898169994 0.529276013
v 2.07042789 0.898169994 0.529276013
v 1.46943903 0.898169994 0.373948991
v 1.46943903 -0.898169994 0
v 2.07042789 -0.898169994 0
v 2.07042789 -0.898169994 0.529276013
v 1.46943903 -0.898169994 0.373948991
v 1.46943903 0.898169994 0
v 2.07042789 0.898169994 0
v 2.07042789 0.898169994 0.529276013
v 1.46943903 0.898169994 0.373948991
v 1.46943903 -0.898169994 0
v 1.46943903 0.898169994 0
v 1.46943903 0.898169994 0.373948991
v 1.46943903 -0.898169994 0.373948991
v 2.07042789 -0.898169994 0
v 2.07042789 0.898169994 0
v 2.07042789 0.898169994 0.529276013
v 2.07042789 -0.898169994 0.529276013
v 2.07042789 -0.685681999 0
v 3.08920097 -0.685681999 0
v 3.08920097 0.685681999 0
v 2.07042789 0.685681999 0
v 2.07042789 -0.685681999 0.529276013
v 3.08920097 -0.685681999 0.337336987
v 3.08920097 0.685681999 0.337336987
v 2.07042789 0.685681999 0.529276013
v 2.07042789 -0.685681999 0
v 3.08920097 -0.685681999 0
v 3.08920097 -0.685681999 0.337336987
v 2.07042789 -0.685681999 0.529276013
v 2.07042789 0.685681999 0
v 3.08920097 0.685681999 0
v 3.08920097 0.685681999 0.337336987
v 2.07042789 0.685681999 0.529276013
v 2.07042789 -0.685681999 0
v 2.07042789 0.685681999 0
v 2.07042789 0.685681999 0.529276013
v 2.07042789 -0.685681999 0.529276013
v 3.08920097 -0.685681999 0
v 3.08920097 0.685681999 0
v 3.08920097 0.685681999 0.337336987
v 3.08920097 -0.685681999 0.337336987
v 3.08920097 -0.864690006 0
v 3.74147296 -0.864690006 0
v 3.74147296 0.864690006 0
v 3.08920097 0.864690006 0
v 3.08920097 -0.864690006 0.337336987
v 3.74147296 -0.864690006 0.580143988
v 3.74147296 0.864690006 0.580143988
v 3.08920097 0.864690006 0.337336987
v 3.08920097 -0.864690006 0
v 3.74147296 -0.864690006 0
v 3.74147296 -0.864690006 0.580143988
v 3.08920097 -0.864690006 0.337336987
v 3.08920097 0.864690006 0
v 3.74147296 0.864690006 0
v 3.74147296 0.864690006 0.580143988
v 3.08920097 0.864690006 0.337336987
v 3.08920097 -0.864690006 0
v 3.08920097 0.864690006 0
v 3.08920097 0.864690006 0.337336987
v 3.08920097 -0.864690006 0.337336987
v 3.74147296 -0.864690006 0
v 3.74147296 0.864690006 0
v 3.74147296 0.864690006 0.580143988
v 3.74147296 -0.864690006 0.580143988
vt 0.166666999 0.25
vt 0.166666999 0.25
vt 0.166666999 0.25
vt 0.166666999 0.25
vt 0.166666999 0.25
vt 0.166666999 0.25
vt 0.166666999 0.25
vt 0.166666999 0.25
vt 0.166666999 0.25
vt 0.166666999 0.25
vt 0.166666999 0.25
vt 0.166666999 0.25
vt 0.166666999 0.25
vt 0.166666999 0.25
vt 0.166666999 0.25
vt 0.166666999 0.25
vt 0.166666999 0.25
vt 0.166666999 0.25
vt 0.166666999 0.25
vt 0.166666999 0.25
vt 0.166666999 0.25
vt 0.166666999 0.25
vt 0.166666999 0.25
vt 0.166666999 0.25
vt 0.166666999 0.25
vt 0.166666999 0.25
vt 0.166666999 0.25
vt 0.166666999 0.25
vt 0.166666999 0.25
vt 0.166666999 0.25
vt 0.166666999 0.25
vt 0.166666999 0.25
vt 0.166666999 0.25
vt 0.166666999 0.25
vt 0.166666999 0.25
vt 0.166666999 0.25
vt 0.5 0.25
vt 0.5 0.25
vt 0.5 0.25
vt 0.5 0.25
vt 0.5 0.25
vt 0.5 0.25
vt 0.5 0.25
vt 0.5 0.25
vt 0.5 0.25
vt 0.5 0.25
vt 0.5 0.25
vt 0.5 0.25
vt 0.5 0.25
vt 0.5 0.25
vt 0.5 0.25
vt 0.5 0.25
vt 0.5 0.25
vt 0.5 0.25
vt 0.5 0.25
vt 0.5 0.25
vt 0.5 0.25
vt 0.5 0.25
vt 0.5 0.25
vt 0.5 0.25
vt 0.5 0.25
vt 0.5 0.25
vt 0.5 0.25
vt 0.5 0.25
vt 0.5 0.25
vt 0.5 0.25
vt 0.5 0.25
vt 0.5 0.25
vt 0.5 0.25
vt 0.5 0.25
vt 0.5 0.25
vt 0.5 0.25
vt 0.833333015 0.25
vt 0.833333015 0.25
vt 0.833333015 0.25
vt 0.833333015 0.25
vt 0.833333015 0.25
vt 0.833333015 0.25
vt 0.833333015 0.25
vt 0.833333015 0.25
vt 0.833333015 0.25
vt 0.833333015 0.25
vt 0.833333015 0.25
vt 0.833333015 0.25
vt 0.833333015 0.25
vt 0.833333015 0.25
vt 0.833333015 0.25
vt 0.833333015 0.25
vt 0.833333015 0.25
vt 0.833333015 0.25
vt 0.833333015 0.25
vt 0.833333015 0.25
vt 0.833333015 0.25
vt 0.833333015 0.25
vt 0.833333015 0.25
vt 0.833333015 0.25
vt 0.833333015 0.25
vt 0.833333015 0.25
vt 0.833333015 0.25
vt 0.833333015 0.25
vt 0.833333015 0.25
vt 0.833333015 0.25
vt 0.833333015 0.25
vt 0.833333015 0.25
vt 0.833333015 0.25
vt 0.833333015 0.25
vt 0.833333015 0.25
vt 0.833333015 0.25
vt 0.166666999 0.75
vt 0.166666999 0.75
vt 0.166666999 0.75
vt 0.166666999 0.75
vt 0.166666999 0.75
vt 0.166666999 0.75
vt 0.166666999 0.75
vt 0.166666999 0.75
vt 0.166666999 0.75
vt 0.166666999 0.75
vt 0.166666999 0.75
vt 0.166666999 0.75
vt 0.166666999 0.75
vt 0.166666999 0.75
vt 0.166666999 0.75
vt 0.166666999 0.75
vt 0.166666999 0.75
vt 0.166666999 0.75
vt 0.166666999 0.75
vt 0.166666999 0.75
vt 0.166666999 0.75
vt 0.166666999 0.75
vt 0.166666999 0.75
vt 0.166666999 0.75
vt 0.166666999 0.75
vt 0.166666999 0.75
vt 0.166666999 0.75
vt 0.166666999 0.75
vt 0.166666999 0.75
vt 0.166666999 0.75
vt 0.166666999 0.75
vt 0.166666999 0.75
vt 0.166666999 0.75
vt 0.166666999 0.75
vt 0.166666999 0.75
vt 0.166666999 0.75
vt 0.5 0.75
vt 0.5 0.75
vt 0.5 0.75
vt 0.5 0.75
vt 0.5 0.75
vt 0.5 0.75
vt 0.5 0.75
vt 0.5 0.75
vt 0.5 0.75
vt 0.5 0.75
vt 0.5 0.75
vt 0.5 0.75
vt 0.5 0.75
vt 0.5 0.75
vt 0.5 0.75
vt 0.5 0.75
vt 0.5 0.75
vt 0.5 0.75
vt 0.5 0.75
vt 0.5 0.75
vt 0.5 0.75
vt 0.5 0.75
vt 0.5 0.75
vt 0.5 0.75
vt 0.5 0.75
vt 0.5 0.75
vt 0.5 0.75
vt 0.5 0.75
vt 0.5 0.75
vt 0.5 0.75
vt 0.5 0.75
vt 0.5 0.75
vt 0.5 0.75
vt 0.5 0.75
vt 0.5 0.75
vt 0.5 0.75
f 3/3 2/2 1/1
f 4/6 3/5 1/4
f 5/7 6/8 7/9
f 5/10 7/11 8/12
f 9/13 10/14 11/15
f 9/16 11/17 12/18
f 15/21 14/20 13/19
f 16/24 15/23 13/22
f 19/27 18/26 17/25
f 20/30 19/29 17/28
f 21/31 22/32 23/33
f 21/34 23/35 24/36
f 27/39 26/38 25/37
f 28/42 27/41 25/40
f 29/43 30/44 31/45
f 29/46 31/47 32/48
f 33/49 34/50 35/51
f 33/52 35/53 36/54
f 39/57 38/56 37/55
f 40/60 39/59 37/58
f 43/63 42/62 41/61
f 44/66 43/65 41/64
f 45/67 46/68 47/69
f 45/70 47/71 48/72
f 51/75 50/74 49/73
f 52/78 51/77 49/76
f 53/79 54/80 55/81
f 53/82 55/83 56/84
f 57/85 58/86 59/87
f 57/88 59/89 60/90
f 63/93 62/92 61/91
f 64/96 63/95 61/94
f 67/99 66/98 65/97
f 68/102 67/101 65/100
f 69/103 70/104 71/105
f 69/106 71/107 72/108
f 75/111 74/110 73/109
f 76/114 75/113 73/112
f 77/115 78/116 79/117
f 77/118 79/119 80/120
f 81/121 82/122 83/123
f 81/124 83/125 84/126
f 87/129 86/128 85/127
f 88/132 87/131 85/130
f 91/135 90/134 89/133
f 92/138 91/137 89/136
f 93/139 94/140 95/141
f 93/142 95/143 96/144
f 99/147 98/146 97/145
f 100/150 99/149 97/148
f 101/151 102/152 103/153
f 101/154 103/155 104/156
f 105/157 106/158 107/159
f 105/160 107/161 108/162
f 111/165 110/164 109/163
f 112/168 111/167 109/166
f 115/171 114/170 113/169
f 116/174 115/173 113/172
f 117/175 118/176 119/177
f 117/178 119/179 120/180
