# https://github.com/mikedh/trimesh
v 1.40319157 -0.73150909 0.04690954
v 1.40319157 -0.73150909 0.30875709
v 1.40319157 -0.72845141 0.00950277
v 1.45403206 -0.90471864 0.04690954
v 1.40319157 -0.72899099 0.34616388
v 1.45403206 -0.90471864 0.34616388
v 1.40319157 -0.71801927 -0.01486160
v 1.45483673 -0.90363944 0.00950277
v 1.47795272 -0.91515079 0.04690954
v 1.40319157 -0.71855884 0.37152724
v 1.45578773 -0.90238039 0.37136074
v 1.47795272 -0.91515079 0.34616388
v 1.40319157 -0.69229862 -0.02052257
v 1.45681184 -0.90112134 -0.01169816
v 1.47795272 -0.91263268 0.00950277
v 1.51533329 -0.91874809 0.04690954
v 1.40319157 -0.69211876 0.37818720
v 1.47795272 -0.90651732 0.37901969
v 1.52169750 -0.90202068 0.40549305
v 1.47795272 -0.87917790 0.39322762
v 1.51533329 -0.91874809 0.34616388
v 1.55271387 -0.91640984 0.38357066
v 1.40319157 -0.65488682 -0.02057810
v 1.51533329 -0.87917790 -0.02057810
v 1.47795272 -0.87917790 -0.01863558
v 1.47795272 -0.90399921 -0.01391810
v 1.51533329 -0.91551050 0.00950277
v 2.03910021 -0.91874809 0.04690954
v 1.40319157 -0.65470691 0.37824270
v 1.49682587 -0.87917790 0.40221856
v 1.51555274 -0.87917790 0.40710254
v 1.51167569 -0.90867566 0.38728915
v 1.55271387 -0.90597769 0.40948903
v 1.96426591 -0.90327973 0.51882341
v 1.81459732 -0.90256030 0.48075063
v 1.94078417 -0.89968242 0.51577094
v 1.79272493 -0.89914285 0.47792014
v 1.64481198 -0.89842337 0.44006935
v 1.62754816 -0.91874809 0.38357066
v 1.59016759 -0.91838838 0.38357066
v 2.00164648 -0.91748904 0.49584655
v 1.85197789 -0.90687703 0.48557910
v 1.40319157 0.65452705 -0.02057810
v 2.03910021 -0.87917790 -0.02057810
v 1.51533329 -0.90507835 -0.01486160
v 2.03910021 -0.91551050 0.00950277
v 2.07172592 -0.90669718 0.00950277
v 2.07333526 -0.90831595 0.04690954
v 2.03910021 -0.91874809 0.49584655
v 1.81459732 -0.87917790 0.48441361
v 2.00164648 -0.84176605 0.53275386
v 1.40319157 0.65470691 0.37824270
v 2.00164648 -0.90705689 0.52348539
v 2.03910021 -0.87917790 0.54174481
v 2.00164648 -0.87917790 0.53258733
v 1.96426591 -0.87917790 0.52304141
v 1.93837017 -0.87917790 0.51638143
v 1.88943162 -0.91874809 0.45838426
v 2.03910021 -0.90831595 0.52781437
v 1.40319157 0.69193890 -0.02052257
v 1.51533329 0.87917790 -0.02057810
v 2.07011657 -0.87917790 -0.01486160
v 2.06594691 -0.90274016 -0.01297461
v 2.03910021 -0.90507835 -0.01486160
v 2.15051040 -0.65470691 -0.02057810
v 2.08613682 -0.87917790 0.00950277
v 2.08994072 -0.87917790 0.04690954
v 2.07333526 -0.90831595 0.49584655
v 2.06814146 -0.90471864 0.52476188
v 2.03910021 -0.84176605 0.54241077
v 2.00164648 0.84176605 0.53275386
v 1.81459732 0.87917790 0.48441361
v 1.51555274 0.87917790 0.40710254
v 1.40319157 0.69211876 0.37818720
v 2.07377417 -0.87917790 0.53036738
v 2.15051040 -0.65470691 0.53441885
v 2.11386135 -0.65470691 0.54074578
v 2.07648078 -0.65470691 0.54579627
v 1.40319157 0.71783941 -0.01491713
v 1.45681184 0.90112134 -0.01169816
v 1.47795272 0.87917790 -0.01863558
v 1.47795272 0.90399921 -0.01391810
v 1.51533329 0.90507835 -0.01486160
v 2.03910021 0.87917790 -0.02057810
v 2.15051040 -0.68474429 -0.01502813
v 2.15051040 -0.68546378 -0.01486160
v 2.15051040 0.65470691 -0.02057810
v 2.15051040 -0.70183142 0.00944724
v 2.08994072 -0.87917790 0.45838426
v 2.15051040 -0.70632807 0.04690954
v 2.08986755 -0.87917790 0.49584655
v 2.15051040 -0.68816174 0.52420687
v 2.07648078 -0.61729512 0.54640676
v 2.03910021 0.84176605 0.54241077
v 1.93837017 0.87917790 0.51638143
v 1.64481198 0.89842337 0.44006935
v 1.49682587 0.87917790 0.40221856
v 1.40319157 0.71855884 0.37141624
v 1.47795272 0.87917790 0.39322762
v 1.45578773 0.90238039 0.37136074
v 2.15051040 -0.61801454 0.53508481
v 2.11386135 -0.61729512 0.54196681
v 1.40319157 0.72827156 0.00939176
v 1.45483673 0.90363944 0.00950277
v 1.47795272 0.91263268 0.00950277
v 1.51533329 0.91551050 0.00950277
v 2.03910021 0.90507835 -0.01486160
v 2.06594691 0.90274016 -0.01297461
v 2.07011657 0.87917790 -0.01486160
v 2.15051040 0.68546378 -0.01486160
v 2.15051040 -0.70632807 0.45838426
v 2.15051040 -0.70452939 0.49584655
v 2.07648078 0.61729512 0.54640676
v 2.07648078 0.65470691 0.54579627
v 2.03910021 0.87917790 0.54174481
v 2.00164648 0.87917790 0.53258733
v 1.96426591 0.87917790 0.52304141
v 1.79272493 0.89914285 0.47792014
v 1.52169750 0.90202068 0.40549305
v 1.40319157 0.72899099 0.34599738
v 1.47795272 0.90651732 0.37901969
v 1.47795272 0.91515079 0.34616388
v 1.45403206 0.90471864 0.34616388
v 2.15051040 0.61729512 0.53508481
v 2.11386135 0.61729512 0.54196681
v 1.40319157 0.73150909 0.04674304
v 1.45403206 0.90471864 0.04690954
v 1.47795272 0.91515079 0.04690954
v 1.51533329 0.91874809 0.04690954
v 2.03910021 0.91551050 0.00950277
v 2.08613682 0.87917790 0.00950277
v 2.07172592 0.90669718 0.00950277
v 2.15051040 0.68582349 -0.01436211
v 2.11386135 0.65470691 0.54074578
v 2.07377417 0.87917790 0.53036738
v 2.06814146 0.90471864 0.52476188
v 2.03910021 0.90831595 0.52781437
v 2.00164648 0.90705689 0.52348539
v 1.96426591 0.90327973 0.51882341
v 1.94078417 0.89968242 0.51577094
v 2.15051040 0.65380763 0.53447432
v 2.15051040 0.65470691 0.53441885
v 1.81459732 0.90256030 0.48075063
v 1.55271387 0.90597769 0.40948903
v 1.40319157 0.73150909 0.30859059
v 1.51167569 0.90867566 0.38728915
v 1.55271387 0.91640984 0.38357066
v 1.51533329 0.91874809 0.34616388
v 2.03910021 0.91874809 0.04690954
v 2.08994072 0.87917790 0.04690954
v 2.15051040 0.70183142 0.00944724
v 2.07333526 0.90831595 0.04690954
v 2.15051040 0.68726240 0.52448440
v 2.15051040 0.68816174 0.52420687
v 2.07333526 0.90831595 0.49584655
v 2.03910021 0.91874809 0.49584655
v 2.08986755 0.87917790 0.49584655
v 2.00164648 0.91748904 0.49584655
v 1.85197789 0.90687703 0.48557910
v 1.59016759 0.91838838 0.38357066
v 1.62754816 0.91874809 0.38357066
v 2.15051040 0.70632807 0.04690954
v 2.08994072 0.87917790 0.45838426
v 2.15051040 0.70416967 0.49656804
v 1.88943162 0.91874809 0.45838426
v 2.15051040 0.70452939 0.49584655
v 2.15051040 0.70632807 0.45977175
f 1 2 5
f 1 5 10
f 1 10 17
f 1 17 29
f 1 29 52
f 1 52 74
f 1 74 98
f 1 98 120
f 1 120 145
f 1 145 126
f 1 126 103
f 1 103 79
f 1 79 60
f 1 60 43
f 1 43 23
f 1 23 13
f 1 13 7
f 1 7 3
f 1 3 4
f 1 4 6
f 1 6 2
f 2 6 5
f 3 7 8
f 3 8 4
f 4 8 9
f 4 9 12
f 4 12 6
f 5 6 11
f 5 11 10
f 6 12 11
f 7 13 14
f 7 14 8
f 8 14 15
f 8 15 9
f 9 15 16
f 9 16 21
f 9 21 12
f 10 11 17
f 11 12 18
f 11 18 19
f 11 19 20
f 11 20 17
f 12 21 22
f 12 22 18
f 13 23 24
f 13 24 25
f 13 25 14
f 14 25 26
f 14 26 15
f 15 27 16
f 15 26 27
f 16 27 46
f 16 46 28
f 16 28 49
f 16 49 58
f 16 58 39
f 16 39 21
f 17 20 30
f 17 30 31
f 17 31 29
f 18 32 33
f 18 33 19
f 18 22 32
f 19 34 35
f 19 35 36
f 19 36 37
f 19 37 38
f 19 38 30
f 19 30 20
f 19 33 34
f 21 39 40
f 21 40 22
f 22 40 41
f 22 41 42
f 22 42 33
f 22 33 32
f 23 43 61
f 23 61 84
f 23 84 87
f 23 87 65
f 23 65 44
f 23 44 24
f 24 44 64
f 24 64 45
f 24 45 26
f 24 26 25
f 26 45 27
f 27 45 64
f 27 64 46
f 28 46 47
f 28 47 48
f 28 48 68
f 28 68 49
f 29 31 50
f 29 50 51
f 29 51 71
f 29 71 52
f 30 38 31
f 31 38 50
f 33 42 34
f 34 36 35
f 34 42 53
f 34 53 54
f 34 54 36
f 36 54 55
f 36 55 56
f 36 56 37
f 37 56 38
f 38 56 57
f 38 57 50
f 39 58 40
f 40 58 41
f 41 58 49
f 41 49 59
f 41 59 53
f 41 53 42
f 43 60 61
f 44 62 63
f 44 63 64
f 44 65 62
f 46 64 63
f 46 63 47
f 47 63 66
f 47 66 67
f 47 67 48
f 48 67 89
f 48 89 68
f 49 68 69
f 49 69 59
f 50 57 51
f 51 57 70
f 51 70 94
f 51 94 71
f 52 71 72
f 52 72 73
f 52 73 74
f 53 59 54
f 54 70 55
f 54 59 69
f 54 69 75
f 54 75 76
f 54 76 77
f 54 77 78
f 54 78 70
f 55 70 56
f 56 70 57
f 60 79 80
f 60 80 81
f 60 81 61
f 61 81 82
f 61 82 83
f 61 83 107
f 61 107 84
f 62 65 63
f 63 65 85
f 63 85 86
f 63 86 66
f 65 87 110
f 65 110 133
f 65 133 151
f 65 151 162
f 65 162 167
f 65 167 166
f 65 166 164
f 65 164 154
f 65 154 153
f 65 153 142
f 65 142 141
f 65 141 124
f 65 124 101
f 65 101 76
f 65 76 92
f 65 92 112
f 65 112 111
f 65 111 90
f 65 90 88
f 65 88 86
f 65 86 85
f 66 86 88
f 66 88 67
f 67 88 90
f 67 90 111
f 67 111 89
f 68 89 91
f 68 91 69
f 69 91 92
f 69 92 75
f 70 78 93
f 70 93 113
f 70 113 94
f 71 94 95
f 71 95 72
f 72 95 96
f 72 96 73
f 73 96 97
f 73 97 74
f 74 97 99
f 74 99 100
f 74 100 98
f 75 92 76
f 76 101 102
f 76 102 77
f 77 102 78
f 78 102 93
f 79 103 104
f 79 104 80
f 80 104 105
f 80 105 82
f 80 82 81
f 82 105 106
f 82 106 83
f 83 106 130
f 83 130 107
f 84 107 108
f 84 108 109
f 84 109 87
f 87 109 108
f 87 108 110
f 89 111 91
f 91 111 112
f 91 112 92
f 93 102 125
f 93 125 113
f 94 113 114
f 94 114 115
f 94 115 116
f 94 116 117
f 94 117 95
f 95 117 96
f 96 117 118
f 96 118 119
f 96 119 97
f 97 119 99
f 98 100 120
f 99 119 100
f 100 119 121
f 100 121 122
f 100 122 123
f 100 123 120
f 101 124 125
f 101 125 102
f 103 126 127
f 103 127 104
f 104 127 128
f 104 128 105
f 105 128 129
f 105 129 106
f 106 129 149
f 106 149 130
f 107 130 108
f 108 131 110
f 108 130 132
f 108 132 131
f 110 131 133
f 113 125 114
f 114 125 134
f 114 134 115
f 115 135 136
f 115 136 137
f 115 137 138
f 115 138 139
f 115 139 140
f 115 140 116
f 115 134 141
f 115 141 142
f 115 142 135
f 116 140 117
f 117 140 118
f 118 140 119
f 119 140 143
f 119 143 139
f 119 139 144
f 119 144 121
f 120 123 145
f 121 144 146
f 121 146 147
f 121 147 122
f 122 147 148
f 122 148 129
f 122 129 128
f 122 128 127
f 122 127 123
f 123 127 126
f 123 126 145
f 124 141 125
f 125 141 134
f 129 148 161
f 129 161 165
f 129 165 156
f 129 156 149
f 130 149 132
f 131 132 150
f 131 150 151
f 131 151 133
f 132 152 150
f 132 149 152
f 135 142 153
f 135 153 154
f 135 154 136
f 136 155 156
f 136 156 137
f 136 154 157
f 136 157 155
f 137 156 158
f 137 158 138
f 138 159 139
f 138 158 159
f 139 143 140
f 139 159 144
f 144 159 147
f 144 147 146
f 147 158 160
f 147 160 148
f 147 159 158
f 148 160 161
f 149 156 155
f 149 155 152
f 150 162 151
f 150 152 155
f 150 155 163
f 150 163 167
f 150 167 162
f 154 164 157
f 155 157 163
f 156 165 158
f 157 164 166
f 157 166 167
f 157 167 163
f 158 165 160
f 160 165 161

