# https://github.com/mikedh/trimesh
v 0.80458842 -0.73151863 0.04691356
v 1.40316662 -0.73137540 0.04691356
v 0.80458842 -0.73151863 0.15913944
v 0.80458842 -0.72836801 0.00947891
v 1.40316662 -0.73137540 0.30872190
v 1.40316662 -0.72822478 0.00951793
v 1.40299087 -0.73137540 0.30872190
v 1.02893809 -0.73108900 0.23393067
v 0.87929348 -0.73108900 0.19649602
v 0.84185314 -0.73022975 0.19649602
v 0.80458842 -0.72707907 0.19649602
v 0.80458842 -0.71791362 -0.01487899
v 1.14840761 -0.71791362 -0.01487899
v 1.40316662 -0.71791362 -0.01483994
v 1.40316662 -0.72879764 0.34615654
v 1.40299087 -0.72879764 0.34615654
v 1.32816856 -0.73094577 0.30872190
v 1.29078676 -0.73051615 0.30872190
v 1.14840761 -0.73065937 0.27132628
v 1.14108360 -0.73051615 0.27132628
v 0.99149764 -0.73037292 0.23393067
v 0.84185314 -0.72006175 0.22460128
v 0.80458842 -0.71676796 0.22015128
v 0.80458842 -0.69227899 -0.02053908
v 1.40316662 -0.69213577 -0.02053908
v 1.40316662 -0.71848647 0.37152935
v 1.14108360 -0.72034821 0.30017321
v 1.22469470 -0.71419015 0.32999601
v 0.92769070 -0.71361729 0.25458023
v 0.80458842 -0.69213577 0.22506970
v 0.80458842 -0.65490104 -0.02057810
v 1.14840761 -0.65461464 -0.02057810
v 1.40316662 0.69184931 -0.02053908
v 1.40316662 -0.69199254 0.37820435
v 1.40299087 -0.69199254 0.37820435
v 1.37322600 -0.71447660 0.36766488
v 0.80458842 0.69213577 0.22506970
v 0.80458842 0.65447141 -0.02057810
v 1.14840761 0.65461464 -0.02057810
v 1.40299087 0.69199254 -0.02053908
v 1.40316662 0.71777039 -0.01487899
v 1.40316662 0.69199254 0.37820435
v 1.40299087 0.69199254 0.37820435
v 0.92769070 0.71361729 0.25458023
v 0.80458842 0.71691114 0.21999514
v 0.80458842 0.69199254 -0.02053908
v 0.84185314 0.65461464 -0.02057810
v 1.14840761 0.69213577 -0.02053908
v 1.14840761 0.71791362 -0.01487899
v 1.40299087 0.71791362 -0.01483994
v 1.40316662 0.72822478 0.00943988
v 1.40316662 0.71848647 0.37137321
v 1.40299087 0.71834325 0.37149031
v 1.37322600 0.71447660 0.36766488
v 1.22469470 0.71419015 0.32999601
v 1.10376034 0.71762722 0.29580128
v 0.84185314 0.72006175 0.22460128
v 0.80458842 0.72707907 0.19633988
v 0.84185314 0.69213577 -0.02053908
v 0.80458842 0.71791362 -0.01491802
v 0.80458842 0.72822478 0.00940085
v 1.40316662 0.73137540 0.04675742
v 1.40316662 0.72879764 0.34596137
v 1.40299087 0.72879764 0.34615654
v 1.14108360 0.72034821 0.30017321
v 0.84185314 0.73022975 0.19649602
v 0.80458842 0.73151863 0.15894426
v 0.80458842 0.73137540 0.04675742
v 0.80458842 0.73151863 0.08415304
v 1.40316662 0.73137540 0.30852673
v 1.40299087 0.73137540 0.30872190
v 1.32816856 0.73094577 0.30872190
v 1.29078676 0.73051615 0.30872190
v 1.14108360 0.73051615 0.27132628
v 0.99149764 0.73037292 0.23393067
v 0.87929348 0.73108900 0.19649602
v 1.02893809 0.73108900 0.23393067
v 1.14840761 0.73065937 0.27132628
f 1 2 5
f 1 5 3
f 1 3 11
f 1 11 23
f 1 23 30
f 1 30 37
f 1 37 45
f 1 45 58
f 1 58 67
f 1 67 69
f 1 69 68
f 1 68 61
f 1 61 60
f 1 60 46
f 1 46 38
f 1 38 31
f 1 31 24
f 1 24 12
f 1 12 4
f 1 4 2
f 2 4 6
f 2 6 14
f 2 14 25
f 2 25 33
f 2 33 41
f 2 41 51
f 2 51 62
f 2 62 70
f 2 70 63
f 2 63 52
f 2 52 42
f 2 42 34
f 2 34 26
f 2 26 15
f 2 15 5
f 3 5 7
f 3 7 8
f 3 8 9
f 3 9 10
f 3 10 11
f 4 12 13
f 4 13 14
f 4 14 6
f 5 15 16
f 5 16 7
f 7 16 17
f 7 17 8
f 8 17 18
f 8 18 19
f 8 19 9
f 9 19 20
f 9 20 21
f 9 21 10
f 10 16 11
f 10 21 16
f 11 16 22
f 11 22 23
f 12 24 13
f 13 24 25
f 13 25 14
f 15 26 16
f 16 27 22
f 16 21 20
f 16 20 18
f 16 18 17
f 16 26 27
f 18 20 19
f 22 26 23
f 22 27 26
f 23 26 28
f 23 28 29
f 23 29 30
f 24 31 25
f 25 31 32
f 25 32 39
f 25 39 33
f 26 34 35
f 26 35 36
f 26 36 28
f 28 36 35
f 28 35 29
f 29 35 30
f 30 35 43
f 30 43 37
f 31 38 47
f 31 47 39
f 31 39 32
f 33 39 40
f 33 40 41
f 34 42 43
f 34 43 35
f 37 43 44
f 37 44 45
f 38 46 59
f 38 59 47
f 39 47 59
f 39 59 48
f 39 48 40
f 40 48 41
f 41 48 49
f 41 49 50
f 41 50 51
f 42 52 53
f 42 53 43
f 43 53 54
f 43 54 55
f 43 55 44
f 44 55 45
f 45 55 56
f 45 56 57
f 45 57 58
f 46 60 59
f 48 60 49
f 48 59 60
f 49 60 51
f 49 51 50
f 51 60 61
f 51 61 62
f 52 57 56
f 52 56 53
f 52 63 64
f 52 64 65
f 52 65 57
f 53 56 54
f 54 56 55
f 57 65 64
f 57 64 58
f 58 64 66
f 58 66 67
f 61 68 62
f 62 68 69
f 62 69 67
f 62 67 70
f 63 70 71
f 63 71 64
f 64 71 72
f 64 72 73
f 64 73 74
f 64 74 75
f 64 75 66
f 66 75 76
f 66 76 67
f 67 76 77
f 67 77 71
f 67 71 70
f 71 77 72
f 72 77 73
f 73 77 78
f 73 78 74
f 74 78 76
f 74 76 75
f 76 78 77

