# https://github.com/mikedh/trimesh
v 2.15059606 -0.70637206 0.04692700
v 3.02563617 -0.70789683 0.04692700
v 3.02563617 -0.70803543 0.08429682
v 2.15059606 -0.70637206 0.45843048
v 2.15059606 -0.70193646 0.00944835
v 3.02563617 -0.70401569 0.00803403
v 3.02563617 -0.70803543 0.27136365
v 3.02563617 -0.70789683 0.30873350
v 2.26359564 -0.70623346 0.45843048
v 2.15059606 -0.70457009 0.49580033
v 2.15059606 -0.68544153 -0.01486656
v 3.02563617 -0.69403553 -0.00659838
v 3.02563617 -0.69680781 0.34708248
v 3.01184316 -0.69888698 0.34615775
v 2.97440505 -0.70318397 0.34615775
v 2.93705269 -0.70512454 0.34615775
v 2.52557653 -0.70554040 0.42100624
v 2.33847178 -0.70526320 0.45843048
v 2.30103373 -0.70595626 0.45843048
v 2.37590989 -0.70346123 0.45843048
v 2.18880517 -0.70249092 0.49580033
v 2.15059606 -0.68821376 0.52419488
v 3.02563617 -0.68655045 -0.01486656
v 2.15059606 -0.68474848 -0.01502975
v 2.97440505 -0.68682765 0.37237647
v 2.56292895 -0.68779796 0.44853046
v 2.78738606 -0.70221372 0.38358200
v 3.02563617 -0.67975837 0.36753526
v 3.01184316 -0.68239205 0.36884076
v 2.56292895 -0.70415429 0.42100624
v 2.74994800 -0.70470874 0.38358200
v 2.60028131 -0.70082755 0.42100624
v 2.37590989 -0.68710485 0.48486679
v 2.18880517 -0.68613459 0.52120311
v 2.15059606 -0.65563970 0.53414928
v 3.02563617 -0.66714458 -0.01845667
v 2.15059606 -0.65466945 -0.02057810
v 2.78738606 -0.68571873 0.40871280
v 3.02563617 -0.65466945 0.37020065
v 2.84744125 -0.67559997 0.40305566
v 2.82473847 -0.68031282 0.40517709
v 2.22624325 -0.68086728 0.51766741
v 2.41326231 -0.68280785 0.48138547
v 2.60028131 -0.68447122 0.44504913
v 2.15059606 -0.65466945 0.53442130
v 3.02563617 -0.65466945 -0.02057810
v 2.15059606 0.65466945 -0.02057810
v 3.01184316 -0.65466945 0.37281164
v 2.65656698 -0.67352080 0.43971836
v 3.02563617 0.65466945 0.37020065
v 2.24988836 -0.67601583 0.51543718
v 2.44076257 -0.67767920 0.47877448
v 2.15136709 -0.65466945 0.53431247
v 2.15059606 -0.61724388 0.53512840
v 3.02563617 0.65466945 -0.02057810
v 2.15059606 0.68544153 -0.01486656
v 3.02563617 0.68655045 -0.01486656
v 2.97440505 -0.65466945 0.37988308
v 3.01184316 0.65466945 0.37281164
v 2.33847178 -0.65466945 0.49971682
v 2.18880517 -0.65466945 0.52789382
v 2.78738606 -0.65466945 0.41513151
v 2.52557653 -0.65466945 0.46446841
v 3.02563617 0.66645152 0.36943911
v 2.84744125 0.67559997 0.40305566
v 2.65656698 0.67352080 0.43971836
v 2.15059606 0.61724388 0.53512840
v 2.15059606 0.68585733 -0.01437700
v 3.02563617 0.70401569 0.00803403
v 2.97440505 0.65466945 0.37988308
v 2.78738606 0.65466945 0.41513151
v 2.52557653 0.65466945 0.46446841
v 3.02563617 0.67975837 0.36753526
v 2.82473847 0.68031282 0.40517709
v 2.44076257 0.67767920 0.47877448
v 2.24988836 0.67601583 0.51543718
v 2.18880517 0.65466945 0.52789382
v 2.33847178 0.65466945 0.49971682
v 2.15059606 0.65383773 0.53447566
v 2.15059606 0.70193646 0.00944835
v 2.15059606 0.70637206 0.04692700
v 3.02563617 0.70664931 0.03049947
v 3.01184316 0.68239205 0.36884076
v 3.02563617 0.68655045 0.36122535
v 2.22624325 0.68086728 0.51766741
v 2.15136709 0.65466945 0.53431247
v 2.15059606 0.65466945 0.53442130
v 2.15059606 0.70637206 0.45843048
v 3.02563617 0.70803543 0.08429682
v 3.02563617 0.70789683 0.04692700
v 2.60028131 0.68447122 0.44504913
v 2.41326231 0.68280785 0.48138547
v 2.97440505 0.68682765 0.37237647
v 2.78738606 0.68571873 0.40871280
v 3.02563617 0.69680781 0.34708248
v 2.18880517 0.68613459 0.52120311
v 2.15059606 0.68821376 0.52419488
v 3.02563617 0.70789683 0.30873350
v 3.02563617 0.70803543 0.27136365
v 2.15059606 0.70457009 0.49580033
v 2.26359564 0.70623346 0.45843048
v 2.56292895 0.68779796 0.44853046
v 2.37590989 0.68710485 0.48486679
v 3.01184316 0.69888698 0.34615775
v 2.97440505 0.70318397 0.34615775
v 2.78738606 0.70221372 0.38358200
v 3.02563617 0.70498594 0.32282199
v 2.18880517 0.70249092 0.49580033
v 2.15059606 0.70415429 0.49656188
v 2.30103373 0.70595626 0.45843048
v 2.33847178 0.70526320 0.45843048
v 2.52557653 0.70554040 0.42100624
v 2.93705269 0.70512454 0.34615775
v 2.37590989 0.70346123 0.45843048
v 2.60028131 0.70082755 0.42100624
v 2.74994800 0.70470874 0.38358200
v 2.56292895 0.70415429 0.42100624
f 1 2 3
f 1 3 7
f 1 7 4
f 1 4 10
f 1 10 22
f 1 22 35
f 1 35 45
f 1 45 54
f 1 54 67
f 1 67 79
f 1 79 87
f 1 87 97
f 1 97 109
f 1 109 100
f 1 100 88
f 1 88 81
f 1 81 80
f 1 80 68
f 1 68 56
f 1 56 47
f 1 47 37
f 1 37 24
f 1 24 11
f 1 11 5
f 1 5 6
f 1 6 2
f 2 6 12
f 2 12 23
f 2 23 36
f 2 36 46
f 2 46 55
f 2 55 57
f 2 57 69
f 2 69 82
f 2 82 90
f 2 90 89
f 2 89 99
f 2 99 98
f 2 98 107
f 2 107 95
f 2 95 84
f 2 84 73
f 2 73 64
f 2 64 50
f 2 50 39
f 2 39 28
f 2 28 13
f 2 13 8
f 2 8 7
f 2 7 3
f 4 7 8
f 4 8 9
f 4 9 10
f 5 11 6
f 6 11 12
f 8 13 14
f 8 14 15
f 8 15 16
f 8 16 17
f 8 17 18
f 8 18 19
f 8 19 9
f 9 19 10
f 10 19 18
f 10 18 20
f 10 20 21
f 10 21 22
f 11 23 12
f 11 24 23
f 13 25 26
f 13 26 27
f 13 27 15
f 13 15 14
f 13 28 29
f 13 29 25
f 15 27 20
f 15 20 30
f 15 30 31
f 15 31 16
f 16 31 18
f 16 18 17
f 18 31 30
f 18 30 20
f 20 27 21
f 21 27 32
f 21 32 33
f 21 33 34
f 21 34 22
f 22 34 35
f 23 24 36
f 24 37 36
f 25 38 34
f 25 34 33
f 25 33 26
f 25 29 38
f 26 33 27
f 27 33 32
f 28 39 40
f 28 40 41
f 28 41 29
f 29 41 42
f 29 42 43
f 29 43 44
f 29 44 38
f 34 38 44
f 34 44 43
f 34 43 42
f 34 42 45
f 34 45 35
f 36 37 46
f 37 47 55
f 37 55 46
f 39 48 49
f 39 49 40
f 39 50 59
f 39 59 48
f 40 49 51
f 40 51 52
f 40 52 41
f 41 52 42
f 42 52 51
f 42 51 53
f 42 53 45
f 45 53 54
f 47 56 57
f 47 57 55
f 48 58 49
f 48 59 70
f 48 70 58
f 49 60 61
f 49 61 51
f 49 58 62
f 49 62 63
f 49 63 60
f 50 64 65
f 50 65 66
f 50 66 59
f 51 61 53
f 53 61 54
f 54 61 60
f 54 60 63
f 54 63 72
f 54 72 67
f 56 68 57
f 57 68 69
f 58 70 71
f 58 71 62
f 59 66 70
f 62 71 72
f 62 72 63
f 64 73 65
f 65 73 74
f 65 74 75
f 65 75 76
f 65 76 66
f 66 71 70
f 66 76 77
f 66 77 78
f 66 78 72
f 66 72 71
f 67 72 78
f 67 78 77
f 67 77 79
f 68 80 69
f 69 80 81
f 69 81 82
f 73 83 74
f 73 84 83
f 74 85 75
f 74 83 85
f 75 85 76
f 76 85 86
f 76 86 77
f 77 86 79
f 79 86 87
f 81 88 99
f 81 99 89
f 81 89 90
f 81 90 82
f 83 91 92
f 83 92 85
f 83 84 93
f 83 93 94
f 83 94 91
f 84 95 93
f 85 87 86
f 85 92 96
f 85 96 87
f 87 96 97
f 88 98 99
f 88 100 101
f 88 101 98
f 91 94 96
f 91 96 92
f 93 102 103
f 93 103 96
f 93 96 94
f 93 95 102
f 95 104 105
f 95 105 106
f 95 106 102
f 95 107 104
f 96 103 108
f 96 108 97
f 97 108 109
f 98 101 110
f 98 110 111
f 98 111 112
f 98 112 113
f 98 113 105
f 98 105 107
f 100 109 108
f 100 108 114
f 100 114 111
f 100 111 110
f 100 110 101
f 102 106 103
f 103 106 115
f 103 115 108
f 104 107 105
f 105 113 116
f 105 116 117
f 105 117 114
f 105 114 106
f 106 114 108
f 106 108 115
f 111 113 112
f 111 114 117
f 111 117 116
f 111 116 113

