# https://github.com/mikedh/trimesh
v -0.01077826 -0.84167066 0.00948465
v -0.00718647 -0.84167066 -0.01490224
v -0.00479180 -0.86611464 -0.01300229
v -0.00535044 -0.86680809 0.00948465
v -0.00239713 -0.86334085 0.02983111
v -0.00359446 -0.84167066 0.03067286
v -0.01077826 0.84167066 0.00948465
v 0.01875529 -0.84167066 -0.02057810
v -0.00718647 0.84167066 -0.01490224
v 0.01875529 -0.86888843 -0.01490224
v 0.01875529 -0.87582290 0.00948465
v 0.14543041 -0.86230068 0.06660386
v 0.01875529 -0.84167066 0.03759933
v 0.01875529 -0.86732814 0.03288550
v -0.00359446 0.84167066 0.03067286
v -0.00239713 0.86334085 0.02983111
v -0.00535044 0.86680809 0.00948465
v -0.00479180 0.86611464 -0.01300229
v 0.69212121 -0.84167066 -0.02057810
v 0.01875529 0.84167066 -0.02057810
v 0.13098287 -0.88137047 0.00948465
v 0.09354710 -0.88119708 0.00948465
v 0.05619106 -0.87963686 0.00948465
v 0.69212121 -0.86888843 -0.01490224
v 0.05619106 -0.87114210 0.03731073
v 0.16841875 -0.86611464 0.06932153
v 0.62762629 -0.86386091 0.17980814
v 0.29788762 -0.86108712 0.10332851
v 0.14335509 -0.84167066 0.06710892
v 0.80434890 -0.69205955 0.22507061
v 0.01875529 0.84167066 0.03759933
v 0.50502188 -0.86888843 0.14657077
v 0.65468545 -0.86784826 0.18300681
v 0.20585463 -0.87044865 0.07374677
v 0.35551809 -0.86975521 0.11015876
v 0.14543041 0.86230068 0.06660386
v 0.01875529 0.86732814 0.03288550
v 0.01875529 0.87582290 0.00948465
v 0.01875529 0.86888843 -0.01490224
v 0.72955709 -0.84167066 -0.01721105
v 0.72955709 -0.86646136 -0.01321874
v 0.80458831 -0.65478680 -0.02057810
v 0.80434890 -0.69205955 -0.02055405
v 0.80458831 -0.69223294 -0.02052999
v 0.69212121 0.84167066 -0.02057810
v 0.28064644 -0.88553115 0.04688270
v 0.69212121 -0.88137047 0.00948465
v 0.24321056 -0.88501104 0.04688270
v 0.20585463 -0.88310409 0.04688270
v 0.54245776 -0.87200894 0.15102005
v 0.69212121 -0.87148883 0.18743205
v 0.47516909 -0.86472774 0.14303539
v 0.69212121 -0.84167066 0.19705212
v 0.65468545 -0.84167066 0.18820165
v 0.54245776 -0.84167066 0.16162618
v 0.80458831 -0.69205955 0.22509465
v 0.80458831 -0.65461347 0.22511871
v 0.80434890 0.69205955 0.22507061
v 0.14335509 0.84167066 0.06710892
v 0.29788762 0.86108712 0.10332851
v 0.62762629 0.86386091 0.17980814
v 0.16841875 0.86611464 0.06932153
v 0.65468545 0.86784826 0.18300681
v 0.50502188 0.86888843 0.14657077
v 0.35551809 0.86975521 0.11015876
v 0.20585463 0.87044865 0.07374677
v 0.05619106 0.87114210 0.03731073
v 0.05619106 0.87963686 0.00948465
v 0.09354710 0.88119708 0.00948465
v 0.13098287 0.88137047 0.00948465
v 0.69212121 0.86888843 -0.01490224
v 0.74967185 -0.86282074 -0.01076562
v 0.72955709 -0.87564951 0.00948465
v 0.80458831 0.65444008 -0.02057810
v 0.80458831 -0.71789043 -0.01490224
v 0.72955709 0.86646136 -0.01321874
v 0.72955709 0.84167066 -0.01721105
v 0.80458831 0.69188622 -0.02055405
v 0.43023006 -0.88553115 0.08430481
v 0.69212121 -0.88553115 0.04688270
v 0.57989352 -0.88535777 0.12170286
v 0.54245776 -0.88449098 0.12170286
v 0.69212121 -0.88397087 0.15910091
v 0.50502188 -0.88137047 0.12170286
v 0.72955709 -0.86940848 0.18714344
v 0.72955709 -0.84167066 0.19645087
v 0.65468545 -0.88033030 0.15910091
v 0.80458831 -0.71685025 0.22016436
v 0.80458831 0.65461347 0.22511871
v 0.80458831 0.69205955 0.22509465
v 0.69212121 0.84167066 0.19705212
v 0.65468545 0.84167066 0.18820165
v 0.54245776 0.84167066 0.16162618
v 0.47516909 0.86472774 0.14303539
v 0.69212121 0.87148883 0.18743205
v 0.54245776 0.87200894 0.15102005
v 0.20585463 0.88310409 0.04688270
v 0.24321056 0.88501104 0.04688270
v 0.28064644 0.88553115 0.04688270
v 0.69212121 0.88137047 0.00948465
v 0.75094903 -0.86507447 0.00948465
v 0.80458831 -0.72829213 0.00948465
v 0.72955709 -0.87877002 0.04688270
v 0.74967185 0.86282074 -0.01076562
v 0.72955709 0.87564951 0.00948465
v 0.80458831 0.71789043 -0.01492630
v 0.61732940 -0.88553115 0.12170286
v 0.69212121 -0.88553115 0.12170286
v 0.72955709 -0.87859668 0.15910091
v 0.75047000 -0.86420763 0.18235745
v 0.80458831 -0.72707863 0.19652302
v 0.80434890 0.71685025 0.22014031
v 0.72955709 0.84167066 0.19645087
v 0.80458831 0.71685025 0.22004411
v 0.65468545 0.88033030 0.15910091
v 0.50502188 0.88137047 0.12170286
v 0.72955709 0.86940848 0.18714344
v 0.69212121 0.88397087 0.15910091
v 0.54245776 0.88449098 0.12170286
v 0.57989352 0.88535777 0.12170286
v 0.43023006 0.88553115 0.08430481
v 0.69212121 0.88553115 0.04688270
v 0.75166734 -0.86628797 0.04688270
v 0.80458831 -0.73141264 0.04688270
v 0.72955709 -0.87877002 0.12170286
v 0.75094903 0.86507447 0.00948465
v 0.80458831 0.72829213 0.00936439
v 0.72955709 0.87877002 0.04688270
v 0.75166734 -0.86628797 0.15910091
v 0.80458831 -0.73141264 0.15910091
v 0.75047000 0.86420763 0.18235745
v 0.80458831 0.72707863 0.19635467
v 0.72955709 0.87859668 0.15910091
v 0.69212121 0.88553115 0.12170286
v 0.61732940 0.88553115 0.12170286
v 0.75166734 0.86628797 0.04688270
v 0.80458831 0.73141264 0.04671436
v 0.72955709 0.87877002 0.12170286
v 0.75166734 0.86628797 0.15910091
v 0.80458831 0.73141264 0.15893257
f 1 2 3
f 1 3 4
f 1 4 5
f 1 5 6
f 1 6 15
f 1 15 7
f 1 7 9
f 1 9 2
f 2 8 3
f 2 9 20
f 2 20 8
f 3 8 10
f 3 10 11
f 3 11 4
f 4 11 5
f 5 12 13
f 5 13 6
f 5 11 14
f 5 14 12
f 6 13 31
f 6 31 15
f 7 15 16
f 7 16 17
f 7 17 18
f 7 18 9
f 8 19 24
f 8 24 10
f 8 20 45
f 8 45 74
f 8 74 42
f 8 42 19
f 9 18 20
f 10 21 22
f 10 22 23
f 10 23 11
f 10 24 47
f 10 47 21
f 11 23 25
f 11 25 14
f 12 14 26
f 12 26 27
f 12 27 28
f 12 28 13
f 13 28 29
f 13 29 30
f 13 30 58
f 13 58 31
f 14 32 33
f 14 33 26
f 14 25 34
f 14 34 35
f 14 35 32
f 15 31 16
f 16 36 37
f 16 37 38
f 16 38 17
f 16 31 36
f 17 38 18
f 18 38 39
f 18 39 20
f 19 40 41
f 19 41 24
f 19 42 43
f 19 43 44
f 19 44 40
f 20 39 71
f 20 71 45
f 21 46 22
f 21 47 80
f 21 80 46
f 22 46 48
f 22 48 23
f 23 48 49
f 23 49 25
f 24 41 47
f 25 49 50
f 25 50 51
f 25 51 34
f 26 33 52
f 26 52 27
f 27 52 33
f 27 33 53
f 27 53 28
f 28 53 54
f 28 54 55
f 28 55 29
f 29 55 30
f 30 55 54
f 30 54 53
f 30 53 56
f 30 56 57
f 30 57 89
f 30 89 58
f 31 58 59
f 31 59 60
f 31 60 36
f 32 35 51
f 32 51 33
f 33 51 53
f 34 51 35
f 36 60 61
f 36 61 62
f 36 62 37
f 37 62 63
f 37 63 64
f 37 64 65
f 37 65 66
f 37 66 67
f 37 67 38
f 38 67 68
f 38 68 39
f 39 68 69
f 39 69 70
f 39 70 100
f 39 100 71
f 40 72 41
f 40 44 72
f 41 72 73
f 41 73 47
f 42 44 43
f 42 74 78
f 42 78 106
f 42 106 127
f 42 127 137
f 42 137 140
f 42 140 132
f 42 132 114
f 42 114 90
f 42 90 89
f 42 89 57
f 42 57 56
f 42 56 88
f 42 88 111
f 42 111 130
f 42 130 124
f 42 124 102
f 42 102 75
f 42 75 44
f 44 75 72
f 45 71 76
f 45 76 77
f 45 77 78
f 45 78 74
f 46 79 48
f 46 80 108
f 46 108 107
f 46 107 79
f 47 73 80
f 48 79 81
f 48 81 82
f 48 82 49
f 49 82 83
f 49 83 84
f 49 84 50
f 50 84 51
f 51 85 86
f 51 86 53
f 51 84 87
f 51 87 83
f 51 83 85
f 53 86 88
f 53 88 56
f 58 89 90
f 58 90 91
f 58 91 92
f 58 92 93
f 58 93 59
f 59 93 60
f 60 92 91
f 60 91 61
f 60 93 92
f 61 63 94
f 61 94 62
f 61 91 63
f 62 94 63
f 63 91 95
f 63 95 64
f 64 95 65
f 65 95 66
f 66 95 67
f 67 95 96
f 67 96 97
f 67 97 68
f 68 97 98
f 68 98 69
f 69 98 99
f 69 99 70
f 70 99 122
f 70 122 100
f 71 100 76
f 72 101 73
f 72 75 102
f 72 102 101
f 73 103 80
f 73 101 103
f 76 104 77
f 76 100 105
f 76 105 104
f 77 104 78
f 78 104 106
f 79 107 81
f 80 103 125
f 80 125 108
f 81 83 82
f 81 107 83
f 83 107 108
f 83 108 109
f 83 109 85
f 83 87 84
f 85 109 110
f 85 110 88
f 85 88 86
f 88 110 111
f 90 112 113
f 90 113 91
f 90 114 112
f 91 113 95
f 95 115 116
f 95 116 96
f 95 113 117
f 95 117 118
f 95 118 115
f 96 116 97
f 97 116 118
f 97 118 119
f 97 119 98
f 98 119 120
f 98 120 121
f 98 121 99
f 99 121 135
f 99 135 134
f 99 134 122
f 100 122 105
f 101 123 103
f 101 102 124
f 101 124 123
f 103 123 129
f 103 129 125
f 104 105 126
f 104 126 127
f 104 127 106
f 105 122 128
f 105 128 126
f 108 125 109
f 109 125 129
f 109 129 110
f 110 129 111
f 111 129 130
f 112 114 131
f 112 131 117
f 112 117 113
f 114 132 131
f 115 118 116
f 117 131 133
f 117 133 118
f 118 134 135
f 118 135 120
f 118 120 119
f 118 133 134
f 120 135 121
f 122 134 138
f 122 138 128
f 123 124 130
f 123 130 129
f 126 128 136
f 126 136 137
f 126 137 127
f 128 138 139
f 128 139 136
f 131 139 133
f 131 132 139
f 132 140 139
f 133 139 138
f 133 138 134
f 136 139 140
f 136 140 137

