# https://github.com/mikedh/trimesh
v 3.02579384 -0.70797187 0.04691506
v 3.02579384 -0.70797187 0.27139010
v 3.02579384 -0.70398569 0.00804624
v 3.06882323 -0.84176728 0.04691506
v 3.02579384 -0.70779854 0.30875239
v 3.06882323 -0.84176728 0.30875239
v 3.02579384 -0.69410706 -0.00659738
v 3.07185047 -0.84176728 0.00949251
v 3.08871621 -0.87088336 0.00949251
v 3.08720265 -0.87278980 0.04691506
v 3.02579384 -0.69670667 0.34707887
v 3.08720265 -0.87278980 0.30875239
v 3.09606804 -0.86689723 0.34617494
v 3.02579384 -0.67972230 0.36756786
v 3.02579384 -0.68648142 -0.01485323
v 3.09527513 -0.86603068 -0.01298511
v 3.12417768 -0.88128199 0.00949251
v 3.12417768 -0.88526812 0.04691506
v 3.12417768 -0.88526812 0.30875239
v 3.12417768 -0.87764248 0.34617494
v 3.10507750 -0.86065805 0.36503687
v 3.02579384 -0.65459234 0.37021938
v 3.51338855 -0.86273778 0.51587204
v 3.70575960 -0.84176728 0.58866825
v 3.02579384 -0.66707065 -0.01846894
v 3.02579384 -0.65459234 -0.02057810
v 3.09015774 -0.84176728 -0.01485323
v 3.12417768 -0.84176728 -0.02057810
v 3.12417768 -0.86880363 -0.01485323
v 3.68529004 -0.88128199 0.00949251
v 3.68529004 -0.88526812 0.04691506
v 3.19899268 -0.88526812 0.34617494
v 3.16158512 -0.88370833 0.34617494
v 3.23640013 -0.88024210 0.38359749
v 3.16158512 -0.87122997 0.37540189
v 3.12417768 -0.86533745 0.36859231
v 3.21340788 -0.86308439 0.40390570
v 3.72442737 -0.84176728 0.59505599
v 3.02579384 0.65459234 0.37021938
v 3.62171893 -0.86464423 0.55474086
v 3.73012135 -0.86603068 0.59312760
v 3.02579384 0.65459234 -0.02057810
v 3.72269760 -0.84176728 -0.02057810
v 3.72269760 -0.86880363 -0.01485323
v 3.72269760 -0.88076205 0.00949251
v 3.72269760 -0.88440156 0.04691506
v 3.68529004 -0.88526812 0.49580488
v 3.49825258 -0.88526812 0.45838232
v 3.38610217 -0.88492150 0.42102004
v 3.27380768 -0.88440156 0.38359749
v 3.46084514 -0.88353500 0.45838232
v 3.34862258 -0.88214855 0.42102004
v 3.53566003 -0.87989549 0.49580488
v 3.46084514 -0.87122997 0.48730796
v 3.34862258 -0.86984352 0.44777626
v 3.23640013 -0.86793707 0.40818428
v 3.32173826 -0.86499084 0.44277452
v 3.74864493 -0.84176728 0.59505599
v 3.72442737 0.84176728 0.59505599
v 3.02579384 0.66655076 0.36943597
v 3.42999650 -0.86655062 0.48164336
v 3.53566003 -0.86741718 0.52003010
v 3.64788259 -0.86949691 0.55962209
v 3.74626632 -0.86603068 0.59312760
v 3.68529004 -0.87244314 0.56643164
v 3.71967036 -0.87330970 0.57408490
v 3.02579384 0.68648142 -0.01485323
v 3.09527513 0.86603068 -0.01298511
v 3.09015774 0.84176728 -0.01485323
v 3.12417768 0.84176728 -0.02057810
v 3.74864493 -0.84176728 -0.01485323
v 3.74626632 -0.86603068 -0.01298511
v 3.72269760 0.84176728 -0.02057810
v 3.75023053 -0.87036347 0.00949251
v 3.75174432 -0.87209653 0.04691506
v 3.72269760 -0.88440156 0.53322742
v 3.68529004 -0.88474817 0.53322742
v 3.61047503 -0.88526812 0.49580488
v 3.57306759 -0.88422822 0.49580488
v 3.64788259 -0.88180188 0.53322742
v 3.75895175 -0.84176728 0.57064997
v 3.74864493 0.84176728 0.59505599
v 3.73012135 0.86603068 0.59312760
v 3.70575960 0.84176728 0.58866825
v 3.02579384 0.67972230 0.36756786
v 3.75023053 -0.87036347 0.57064997
v 3.02579384 0.70398569 0.00804624
v 3.07185047 0.84176728 0.00949251
v 3.08871621 0.87088336 0.00949251
v 3.12417768 0.88128199 0.00949251
v 3.12417768 0.86880363 -0.01485323
v 3.75895175 -0.84176728 0.00949251
v 3.74864493 0.84176728 -0.01485323
v 3.72269760 0.86880363 -0.01485323
v 3.74626632 0.86603068 -0.01298511
v 3.76205113 -0.84176728 0.04691506
v 3.75174432 -0.87209653 0.53322742
v 3.76205113 -0.84176728 0.53322742
v 3.75895175 0.84176728 0.57064997
v 3.74626632 0.86603068 0.59312760
v 3.64788259 0.86949691 0.55962209
v 3.62171893 0.86464423 0.55474086
v 3.71967036 0.87330970 0.57408490
v 3.68529004 0.87244314 0.56643164
v 3.51338855 0.86273778 0.51587204
v 3.02579384 0.68648142 0.36124038
v 3.10507750 0.86065805 0.36503687
v 3.09606804 0.86689723 0.34617494
v 3.02579384 0.70658537 0.03046359
v 3.06882323 0.84176728 0.04691506
v 3.08720265 0.87278980 0.04691506
v 3.12417768 0.88526812 0.04691506
v 3.68529004 0.88128199 0.00949251
v 3.75895175 0.84176728 0.00949251
v 3.72269760 0.88076205 0.00949251
v 3.75023053 0.87036347 0.00949251
v 3.76205113 0.84176728 0.04691506
v 3.76205113 0.84176728 0.53322742
v 3.75023053 0.87036347 0.57064997
v 3.72269760 0.88440156 0.53322742
v 3.46084514 0.87122997 0.48730796
v 3.34862258 0.86984352 0.44777626
v 3.23640013 0.86793707 0.40818428
v 3.42999650 0.86655062 0.48164336
v 3.53566003 0.86741718 0.52003010
v 3.64788259 0.88180188 0.53322742
v 3.32173826 0.86499084 0.44277452
v 3.68529004 0.88474817 0.53322742
v 3.21340788 0.86308439 0.40390570
v 3.02579384 0.69670667 0.34707887
v 3.06882323 0.84176728 0.30875239
v 3.12417768 0.86533745 0.36859231
v 3.12417768 0.87764248 0.34617494
v 3.08720265 0.87278980 0.30875239
v 3.02579384 0.70797187 0.04691506
v 3.12417768 0.88526812 0.30875239
v 3.68529004 0.88526812 0.04691506
v 3.72269760 0.88440156 0.04691506
v 3.75174432 0.87209653 0.04691506
v 3.75174432 0.87209653 0.53322742
v 3.68529004 0.88526812 0.49580488
v 3.16158512 0.87122997 0.37540189
v 3.53566003 0.87989549 0.49580488
v 3.23640013 0.88024210 0.38359749
v 3.57306759 0.88422822 0.49580488
v 3.46084514 0.88353500 0.45838232
v 3.34862258 0.88214855 0.42102004
v 3.38610217 0.88492150 0.42102004
v 3.27380768 0.88440156 0.38359749
v 3.61047503 0.88526812 0.49580488
v 3.49825258 0.88526812 0.45838232
v 3.02579384 0.70502558 0.32285364
v 3.02579384 0.70797187 0.28410533
v 3.02579384 0.70779854 0.30875239
v 3.16158512 0.88370833 0.34617494
v 3.19899268 0.88526812 0.34617494
f 1 2 5
f 1 5 11
f 1 11 14
f 1 14 22
f 1 22 39
f 1 39 60
f 1 60 85
f 1 85 106
f 1 106 130
f 1 130 152
f 1 152 154
f 1 154 153
f 1 153 135
f 1 135 109
f 1 109 87
f 1 87 67
f 1 67 42
f 1 42 26
f 1 26 25
f 1 25 15
f 1 15 7
f 1 7 3
f 1 3 4
f 1 4 6
f 1 6 2
f 2 6 5
f 3 7 8
f 3 8 4
f 4 8 9
f 4 9 10
f 4 10 12
f 4 12 6
f 5 6 11
f 6 12 13
f 6 13 14
f 6 14 11
f 7 15 8
f 8 16 9
f 8 15 16
f 9 16 17
f 9 17 18
f 9 18 10
f 10 18 19
f 10 19 12
f 12 19 20
f 12 20 13
f 13 20 21
f 13 21 14
f 14 21 23
f 14 23 24
f 14 24 22
f 15 25 16
f 16 25 26
f 16 26 27
f 16 27 28
f 16 28 29
f 16 29 17
f 17 30 31
f 17 31 18
f 17 29 44
f 17 44 30
f 18 31 47
f 18 47 78
f 18 78 48
f 18 48 32
f 18 32 19
f 19 32 33
f 19 33 20
f 20 33 34
f 20 34 35
f 20 35 36
f 20 36 21
f 21 36 37
f 21 37 23
f 22 24 38
f 22 38 59
f 22 59 39
f 23 37 57
f 23 57 40
f 23 40 24
f 24 40 41
f 24 41 38
f 26 28 27
f 26 42 70
f 26 70 73
f 26 73 43
f 26 43 28
f 28 43 44
f 28 44 29
f 30 44 45
f 30 45 31
f 31 45 46
f 31 46 76
f 31 76 47
f 32 48 49
f 32 49 50
f 32 50 33
f 33 50 79
f 33 79 51
f 33 51 52
f 33 52 34
f 34 52 80
f 34 80 53
f 34 53 54
f 34 54 35
f 35 54 55
f 35 55 56
f 35 56 36
f 36 56 57
f 36 57 37
f 38 41 64
f 38 64 58
f 38 58 82
f 38 82 59
f 39 59 60
f 40 57 61
f 40 61 62
f 40 62 63
f 40 63 41
f 41 63 65
f 41 65 66
f 41 66 64
f 42 67 68
f 42 68 69
f 42 69 70
f 43 71 72
f 43 72 44
f 43 73 93
f 43 93 71
f 44 72 45
f 45 72 74
f 45 74 46
f 46 74 75
f 46 75 97
f 46 97 76
f 47 77 78
f 47 76 77
f 48 78 77
f 48 77 49
f 49 77 50
f 50 77 79
f 51 79 80
f 51 80 52
f 53 80 54
f 54 63 55
f 54 80 63
f 55 63 56
f 56 61 57
f 56 63 61
f 58 64 81
f 58 81 99
f 58 99 82
f 59 82 100
f 59 100 83
f 59 83 84
f 59 84 60
f 60 84 85
f 61 63 62
f 63 80 65
f 64 66 76
f 64 76 86
f 64 86 81
f 65 80 66
f 66 80 77
f 66 77 76
f 67 87 88
f 67 88 68
f 68 89 90
f 68 90 91
f 68 91 70
f 68 70 69
f 68 88 89
f 70 91 94
f 70 94 73
f 71 92 72
f 71 93 114
f 71 114 92
f 72 92 74
f 73 94 95
f 73 95 93
f 74 92 96
f 74 96 75
f 75 96 98
f 75 98 97
f 76 97 86
f 77 80 79
f 81 86 98
f 81 98 118
f 81 118 99
f 82 99 100
f 83 101 102
f 83 102 84
f 83 100 103
f 83 103 104
f 83 104 101
f 84 102 105
f 84 105 85
f 85 105 107
f 85 107 108
f 85 108 106
f 86 97 98
f 87 109 110
f 87 110 88
f 88 110 89
f 89 110 111
f 89 111 112
f 89 112 90
f 90 112 137
f 90 137 113
f 90 113 94
f 90 94 91
f 92 114 117
f 92 117 96
f 93 95 114
f 94 113 115
f 94 115 95
f 95 115 116
f 95 116 114
f 96 117 118
f 96 118 98
f 99 118 119
f 99 119 100
f 100 119 120
f 100 120 103
f 101 121 122
f 101 122 123
f 101 123 124
f 101 124 125
f 101 125 102
f 101 104 126
f 101 126 121
f 102 127 129
f 102 129 105
f 102 125 124
f 102 124 127
f 103 120 128
f 103 128 126
f 103 126 104
f 105 129 107
f 106 108 131
f 106 131 130
f 107 129 132
f 107 132 133
f 107 133 108
f 108 133 134
f 108 134 131
f 109 135 110
f 110 131 134
f 110 134 111
f 110 135 153
f 110 153 131
f 111 134 136
f 111 136 112
f 112 136 156
f 112 156 151
f 112 151 150
f 112 150 141
f 112 141 137
f 113 137 115
f 114 116 117
f 115 137 138
f 115 138 116
f 116 139 117
f 116 138 139
f 117 139 140
f 117 140 118
f 118 140 119
f 119 140 120
f 120 140 139
f 120 139 138
f 120 138 137
f 120 137 141
f 120 141 128
f 121 142 122
f 121 126 143
f 121 143 144
f 121 144 142
f 122 142 123
f 123 132 127
f 123 127 124
f 123 142 132
f 126 145 146
f 126 146 147
f 126 147 144
f 126 144 143
f 126 128 145
f 127 132 129
f 128 148 149
f 128 149 145
f 128 141 150
f 128 150 151
f 128 151 148
f 130 131 152
f 131 153 154
f 131 154 152
f 132 142 133
f 133 144 155
f 133 155 136
f 133 136 134
f 133 142 144
f 136 155 156
f 144 147 155
f 145 149 155
f 145 155 146
f 146 155 147
f 148 151 156
f 148 156 149
f 149 156 155

